HIERARCHY
ROOT hip
{
  OFFSET 3.12472 80.9536 175.129
  CHANNELS 6 Xposition Yposition Zposition Zrotation Xrotation Yrotation
  JOINT abdomen
  {
    OFFSET 0 20.6881 -0.73152
    CHANNELS 3 Zrotation Xrotation Yrotation
    JOINT chest
    {
      OFFSET 0 11.7043 -0.48768
      CHANNELS 3 Zrotation Xrotation Yrotation
      JOINT neck
      {
        OFFSET 0 22.1894 -2.19456
        CHANNELS 3 Zrotation Xrotation Yrotation
        JOINT head
        {
          OFFSET -0.24384 7.07133 1.2192
          CHANNELS 3 Zrotation Xrotation Yrotation
          JOINT leftEye
          {
            OFFSET 4.14528 8.04674 8.04672
            CHANNELS 3 Zrotation Xrotation Yrotation
            End Site
            {
              OFFSET 1 0 0
            }
          }
          JOINT rightEye
          {
            OFFSET -3.6576 8.04674 8.04672
            CHANNELS 3 Zrotation Xrotation Yrotation
            End Site
            {
              OFFSET 1 0 0
            }
          }
        }
      }
      JOINT rCollar
      {
        OFFSET -2.68224 19.2634 -4.8768
        CHANNELS 3 Zrotation Xrotation Yrotation
        JOINT rShldr
        {
          OFFSET -8.77824 -1.95073 1.46304
          CHANNELS 3 Zrotation Xrotation Yrotation
          JOINT rForeArm
          {
            OFFSET -28.1742 -1.7115 0.48768
            CHANNELS 3 Zrotation Xrotation Yrotation
            JOINT rHand
            {
              OFFSET -22.5879 0.773209 7.07136
              CHANNELS 3 Zrotation Xrotation Yrotation
              JOINT rThumb1
              {
                OFFSET -1.2192 -0.487915 3.41376
                CHANNELS 3 Zrotation Xrotation Yrotation
                JOINT rThumb2
                {
                  OFFSET -3.37035 -0.52449 3.41376
                  CHANNELS 3 Zrotation Xrotation Yrotation
                  End Site
                  {
                    OFFSET -1.78271 -1.18214 1.43049
                  }
                }
              }
              JOINT rIndex1
              {
                OFFSET -7.75947 0.938293 5.60832
                CHANNELS 3 Zrotation Xrotation Yrotation
                JOINT rIndex2
                {
                  OFFSET -2.54057 -0.884171 1.56538
                  CHANNELS 3 Zrotation Xrotation Yrotation
                  End Site
                  {
                    OFFSET -1.62519 -0.234802 1.16502
                  }
                }
              }
              JOINT rMid1
              {
                OFFSET -8.24714 1.18213 3.41376
                CHANNELS 3 Zrotation Xrotation Yrotation
                JOINT rMid2
                {
                  OFFSET -3.10165 -0.590103 1.0647
                  CHANNELS 3 Zrotation Xrotation Yrotation
                  End Site
                  {
                    OFFSET -2.48547 -0.328903 0.83742
                  }
                }
              }
              JOINT rRing1
              {
                OFFSET -8.82822 0.546677 1.51678
                CHANNELS 3 Zrotation Xrotation Yrotation
                JOINT rRing2
                {
                  OFFSET -2.60934 -0.819778 -0.0198488
                  CHANNELS 3 Zrotation Xrotation Yrotation
                  End Site
                  {
                    OFFSET -2.33842 -0.294052 0.168128
                  }
                }
              }
              JOINT rPinky1
              {
                OFFSET -8.27202 -0.0477905 -0.4584
                CHANNELS 3 Zrotation Xrotation Yrotation
                JOINT rPinky2
                {
                  OFFSET -1.82734 -0.647385 -0.700984
                  CHANNELS 3 Zrotation Xrotation Yrotation
                  End Site
                  {
                    OFFSET -1.69225 -0.51767 -0.607171
                  }
                }
              }
            }
          }
        }
      }
      JOINT lCollar
      {
        OFFSET 2.68224 19.2634 -4.8768
        CHANNELS 3 Zrotation Xrotation Yrotation
        JOINT lShldr
        {
          OFFSET 8.77824 -1.95073 1.46304
          CHANNELS 3 Zrotation Xrotation Yrotation
          JOINT lForeArm
          {
            OFFSET 28.1742 -1.7115 0.48768
            CHANNELS 3 Zrotation Xrotation Yrotation
            JOINT lHand
            {
              OFFSET 22.5879 0.773209 7.07136
              CHANNELS 3 Zrotation Xrotation Yrotation
              JOINT lThumb1
              {
                OFFSET 1.2192 -0.487915 3.41376
                CHANNELS 3 Zrotation Xrotation Yrotation
                JOINT lThumb2
                {
                  OFFSET 3.37035 -0.52449 3.41376
                  CHANNELS 3 Zrotation Xrotation Yrotation
                  End Site
                  {
                    OFFSET 1.78271 -1.18214 1.43049
                  }
                }
              }
              JOINT lIndex1
              {
                OFFSET 7.75947 0.938293 5.60832
                CHANNELS 3 Zrotation Xrotation Yrotation
                JOINT lIndex2
                {
                  OFFSET 2.54057 -0.884171 1.56538
                  CHANNELS 3 Zrotation Xrotation Yrotation
                  End Site
                  {
                    OFFSET 1.62519 -0.234802 1.16502
                  }
                }
              }
              JOINT lMid1
              {
                OFFSET 8.24714 1.18213 3.41376
                CHANNELS 3 Zrotation Xrotation Yrotation
                JOINT lMid2
                {
                  OFFSET 3.10165 -0.590103 1.0647
                  CHANNELS 3 Zrotation Xrotation Yrotation
                  End Site
                  {
                    OFFSET 2.48547 -0.328903 0.83742
                  }
                }
              }
              JOINT lRing1
              {
                OFFSET 8.82822 0.546677 1.51678
                CHANNELS 3 Zrotation Xrotation Yrotation
                JOINT lRing2
                {
                  OFFSET 2.60934 -0.819778 -0.0198488
                  CHANNELS 3 Zrotation Xrotation Yrotation
                  End Site
                  {
                    OFFSET 2.33842 -0.294052 0.168128
                  }
                }
              }
              JOINT lPinky1
              {
                OFFSET 8.27202 -0.0477905 -0.4584
                CHANNELS 3 Zrotation Xrotation Yrotation
                JOINT lPinky2
                {
                  OFFSET 1.82734 -0.647385 -0.700984
                  CHANNELS 3 Zrotation Xrotation Yrotation
                  End Site
                  {
                    OFFSET 1.69225 -0.51767 -0.607171
                  }
                }
              }
            }
          }
        }
      }
    }
  }
  JOINT rButtock
  {
    OFFSET -8.77824 4.35084 1.2192
    CHANNELS 3 Zrotation Xrotation Yrotation
    JOINT rThigh
    {
      OFFSET 0 -1.70687 -2.19456
      CHANNELS 3 Zrotation Xrotation Yrotation
      JOINT rShin
      {
        OFFSET 0 -36.8199 0.73152
        CHANNELS 3 Zrotation Xrotation Yrotation
        JOINT rFoot
        {
          OFFSET 0.73152 -45.1104 -5.12064
          CHANNELS 3 Zrotation Xrotation Yrotation
          End Site
          {
            OFFSET -1.1221 -3.69964 12.103
          }
        }
      }
    }
  }
  JOINT lButtock
  {
    OFFSET 8.77824 4.35084 1.2192
    CHANNELS 3 Zrotation Xrotation Yrotation
    JOINT lThigh
    {
      OFFSET 0 -1.70687 -2.19456
      CHANNELS 3 Zrotation Xrotation Yrotation
      JOINT lShin
      {
        OFFSET 0 -36.8199 0.73152
        CHANNELS 3 Zrotation Xrotation Yrotation
        JOINT lFoot
        {
          OFFSET -0.73152 -45.1104 -5.12064
          CHANNELS 3 Zrotation Xrotation Yrotation
          End Site
          {
            OFFSET 1.1221 -3.69964 12.103
          }
        }
      }
    }
  }
}
MOTION
Frames:	7
Frame Time:	0.00833333
3.96712 83.6339 -85.2036 -7.70339 3.37847 4.5568 11.3966 4.97804 -0.121825 2.7301 -1.6287 0.248707 -3.16299 -1.96725 -0.253574 0.440505 -5.59838 0.51065 -0 0 0 -0 0 0 1.76296e-013 -8.28441e-014 6.70836e-014 74.9826 -14.6559 0.616311 -7.49273 -2.75149 13.1764 -0.0243988 4.50118 0.633858 -2.68108e-009 -1.631e-010 2.51037e-010 -4.63398e-009 -2.80478e-010 4.45856e-010 -2.68108e-009 -1.63097e-010 2.5103e-010 7.73091 5.47488 0.417314 -2.68108e-009 -1.631e-010 2.51046e-010 2.90554 0.965183 0.102902 -2.68107e-009 -1.63101e-010 2.51042e-010 10.2786 0.731801 0.0259123 -2.68108e-009 -1.63098e-010 2.51046e-010 2.22167 -0.733487 -0.20892 1.76e-013 -8.2845e-014 6.68196e-014 -81.9857 26.0073 1.71217 18.6615 -11.4163 -35.521 0.00542102 2.0999 -0.295257 -2.52925e-009 -2.6641e-009 -1.13609e-009 -4.37411e-009 -4.60445e-009 -1.95843e-009 -2.52925e-009 -2.66409e-009 -1.13608e-009 -7.73091 5.47488 -0.417314 -2.52924e-009 -2.66409e-009 -1.13609e-009 -2.90554 0.965183 -0.102902 -2.52924e-009 -2.66409e-009 -1.13609e-009 -10.2786 0.731801 -0.0259123 -2.52924e-009 -2.66409e-009 -1.1361e-009 -2.22167 -0.733487 0.20892 -2.03217e-016 0 -3.88251e-019 12.4108 -13.2468 0.792454 0.00150809 25.056 0.397663 -2.3998 -13.5049 -6.72801 2.03217e-016 0 3.88251e-019 10.7634 -28.4054 1.85588 0.766177 54.0007 -1.15556 0.178458 -10.3577 -0.937737 
3.89608 83.6254 -84.5946 -7.74006 3.43145 4.468 11.3905 4.82133 -0.0257402 2.71091 -1.65444 0.264539 -3.15817 -1.9437 -0.315403 0.459559 -5.47792 0.3855 -0 0 0 -0 0 0 1.37196e-013 -1.6976e-013 2.32563e-014 74.9997 -14.1492 0.835218 -7.61406 -2.81268 13.3971 -0.0183912 3.88817 0.547265 -1.68733e-009 -8.18329e-010 1.41812e-009 -2.91116e-009 -1.41596e-009 2.45674e-009 -1.68733e-009 -8.18327e-010 1.41811e-009 7.73091 5.47488 0.417314 -1.68733e-009 -8.1833e-010 1.41813e-009 2.90554 0.965183 0.102902 -1.68732e-009 -8.1833e-010 1.41813e-009 10.2786 0.731801 0.0259123 -1.68733e-009 -8.18327e-010 1.41813e-009 2.22167 -0.733487 -0.20892 1.36938e-013 -1.69754e-013 2.3033e-014 -81.9619 26.2601 1.63963 18.8076 -11.5824 -35.8574 0.00464804 1.94794 -0.273872 -2.06013e-009 -2.64903e-009 -1.1194e-009 -3.56425e-009 -4.57918e-009 -1.93264e-009 -2.06013e-009 -2.64903e-009 -1.11939e-009 -7.73091 5.47488 -0.417314 -2.06012e-009 -2.64903e-009 -1.1194e-009 -2.90554 0.965183 -0.102902 -2.06011e-009 -2.64902e-009 -1.11939e-009 -10.2786 0.731801 -0.0259123 -2.06012e-009 -2.64903e-009 -1.11941e-009 -2.22167 -0.733487 0.20892 -2.03217e-016 0 -3.88251e-019 12.5351 -12.9029 0.893712 0.00403553 25.0429 0.428405 -2.47926 -13.7322 -6.8831 2.03217e-016 0 3.88251e-019 10.6355 -29.2577 1.7822 0.735043 53.3285 -1.13708 0.2888 -10.751 -0.549543 
3.9451 83.5368 -84.0195 -7.79655 3.45329 4.44078 11.4026 4.70833 0.00769379 2.65823 -1.72488 0.264495 -3.14166 -1.91387 -0.343191 0.518627 -5.34441 0.325645 -0 0 0 -0 0 0 9.70249e-014 -2.05152e-013 8.94531e-016 75.0559 -13.6431 1.00996 -7.74337 -2.8788 13.6324 -0.0132563 3.28538 0.462241 -1.01608e-009 -1.04329e-009 1.98744e-009 -1.74837e-009 -1.80612e-009 3.43661e-009 -1.01607e-009 -1.04329e-009 1.98744e-009 7.73091 5.47488 0.417314 -1.01608e-009 -1.04329e-009 1.98745e-009 2.90554 0.965183 0.102902 -1.01607e-009 -1.04329e-009 1.98745e-009 10.2786 0.731801 0.0259123 -1.01608e-009 -1.04328e-009 1.98745e-009 2.22167 -0.733487 -0.20892 9.67964e-014 -2.05141e-013 6.95746e-016 -81.912 26.4996 1.60608 18.9439 -11.7388 -36.1739 0.00400956 1.80773 -0.254145 -1.66094e-009 -2.48071e-009 -1.02239e-009 -2.87473e-009 -4.28882e-009 -1.76678e-009 -1.66094e-009 -2.48071e-009 -1.02238e-009 -7.73091 5.47488 -0.417314 -1.66094e-009 -2.48071e-009 -1.02239e-009 -2.90554 0.965183 -0.102902 -1.66092e-009 -2.4807e-009 -1.02239e-009 -10.2786 0.731801 -0.0259123 -1.66093e-009 -2.48071e-009 -1.02241e-009 -2.22167 -0.733487 0.20892 -2.03217e-016 0 -3.88251e-019 12.6888 -12.4994 0.990053 0.00677045 24.9824 0.457757 -2.57282 -13.9435 -7.09216 2.03217e-016 0 3.88251e-019 10.5067 -30.0566 1.64984 0.70328 52.6065 -1.11736 0.397249 -11.1365 -0.183679 
3.83253 83.5092 -83.376 -7.89062 3.42534 4.50854 11.4546 4.66028 -0.0577012 2.54768 -1.86494 0.239318 -3.10984 -1.88531 -0.310106 0.644116 -5.14694 0.384213 -0 0 0 -0 0 0 4.24684e-014 -1.57282e-013 1.28791e-014 75.178 -13.1259 1.12776 -7.88341 -2.95126 13.8874 -0.00844995 2.6749 0.376206 -7.81315e-010 -5.60702e-010 1.61304e-009 -1.34424e-009 -9.70712e-010 2.78849e-009 -7.81312e-010 -5.60701e-010 1.61303e-009 7.73091 5.47488 0.417314 -7.81316e-010 -5.60701e-010 1.61305e-009 2.90554 0.965183 0.102902 -7.8131e-010 -5.60702e-010 1.61305e-009 10.2786 0.731801 0.0259123 -7.81319e-010 -5.60699e-010 1.61305e-009 2.22167 -0.733487 -0.20892 4.22585e-014 -1.57271e-013 1.26807e-014 -81.8304 26.711 1.64469 19.074 -11.8899 -36.4769 0.00342212 1.66868 -0.234585 -1.30645e-009 -1.9917e-009 -7.67041e-010 -2.26169e-009 -3.44397e-009 -1.32536e-009 -1.30646e-009 -1.9917e-009 -7.67032e-010 -7.73091 5.47488 -0.417314 -1.30645e-009 -1.9917e-009 -7.67041e-010 -2.90554 0.965183 -0.102902 -1.30644e-009 -1.99169e-009 -7.67037e-010 -10.2786 0.731801 -0.0259123 -1.30644e-009 -1.9917e-009 -7.67052e-010 -2.22167 -0.733487 0.20892 -2.03217e-016 0 -3.88251e-019 12.8937 -12.018 1.07246 0.00993679 24.8793 0.485927 -2.69069 -14.1445 -7.38656 2.03217e-016 0 3.88251e-019 10.3843 -30.7912 1.43247 0.671463 51.8463 -1.09743 0.505135 -11.5517 0.166621 
3.90375 83.4324 -82.7671 -8.01553 3.37006 4.64541 11.5394 4.6491 -0.189445 2.39934 -2.04974 0.197031 -3.06456 -1.8584 -0.239995 0.805039 -4.90955 0.513084 -0 0 0 -0 0 0 -2.94178e-014 -5.60622e-014 4.19374e-014 75.3421 -12.5811 1.20356 -8.03454 -3.03011 14.1635 -0.00444717 2.03076 0.285512 -7.21789e-010 3.6266e-010 6.44633e-010 -1.24567e-009 6.28118e-010 1.11513e-009 -7.21783e-010 3.6266e-010 6.44622e-010 7.73091 5.47488 0.417314 -7.2179e-010 3.62661e-010 6.44641e-010 2.90554 0.965183 0.102902 -7.21786e-010 3.6266e-010 6.44637e-010 10.2786 0.731801 0.0259123 -7.21792e-010 3.62661e-010 6.44645e-010 2.22167 -0.733487 -0.20892 -2.96108e-014 -5.60537e-014 4.1723e-014 -81.7287 26.9176 1.73351 19.1988 -12.0366 -36.7679 0.00288164 1.53472 -0.215743 -8.81731e-010 -1.20526e-009 -3.69906e-010 -1.52669e-009 -2.08491e-009 -6.37966e-010 -8.81738e-010 -1.20525e-009 -3.69897e-010 -7.73091 5.47488 -0.417314 -8.81731e-010 -1.20526e-009 -3.69903e-010 -2.90554 0.965183 -0.102902 -8.81723e-010 -1.20525e-009 -3.69902e-010 -10.2786 0.731801 -0.0259123 -8.81721e-010 -1.20526e-009 -3.69914e-010 -2.22167 -0.733487 0.20892 -2.03217e-016 0 -3.88251e-019 13.1356 -11.4831 1.13207 0.0136814 24.7286 0.51264 -2.82258 -14.3244 -7.73284 2.03217e-016 0 3.88251e-019 10.2625 -31.4881 1.14653 0.639716 51.0504 -1.07739 0.611983 -11.9642 0.499609 
3.94057 83.4236 -82.1717 -8.13638 3.31255 4.79562 11.6123 4.6481 -0.330408 2.25265 -2.24182 0.152439 -3.01279 -1.81584 -0.175353 0.963545 -4.72882 0.628659 -0 0 0 -0 0 0 -8.64706e-014 4.95318e-014 7.20424e-014 75.5107 -12.0475 1.25608 -8.1898 -3.11192 14.4478 -0.00195104 1.41272 0.198571 -7.76969e-010 1.30301e-009 -4.01652e-010 -1.34564e-009 2.25644e-009 -6.92314e-010 -7.76961e-010 1.30301e-009 -4.01666e-010 7.73091 5.47488 0.417314 -7.7697e-010 1.30301e-009 -4.01647e-010 2.90554 0.965183 0.102902 -7.76968e-010 1.30301e-009 -4.01649e-010 10.2786 0.731801 0.0259123 -7.76971e-010 1.30301e-009 -4.01639e-010 2.22167 -0.733487 -0.20892 -8.66502e-014 4.95364e-014 7.18075e-014 -81.613 27.1349 1.81525 19.3106 -12.1691 -37.0305 0.00248393 1.4267 -0.200551 -5.29754e-010 -4.80668e-010 5.85454e-012 -9.17244e-010 -8.32586e-010 1.2782e-011 -5.29762e-010 -4.80668e-010 5.86425e-012 -7.73091 5.47488 -0.417314 -5.29755e-010 -4.80672e-010 5.85981e-012 -2.90554 0.965183 -0.102902 -5.29753e-010 -4.8067e-010 5.85869e-012 -10.2786 0.731801 -0.0259123 -5.29745e-010 -4.80672e-010 5.85015e-012 -2.22167 -0.733487 0.20892 -2.03217e-016 0 -3.88251e-019 13.3759 -10.9178 1.19588 0.017674 24.5229 0.537525 -2.9545 -14.478 -8.08579 2.03217e-016 0 3.88251e-019 10.1204 -32.1507 0.833946 0.607264 50.1905 -1.05546 0.712485 -12.3142 0.801039 
3.88639 83.3375 -81.6372 -8.21869 3.27795 4.90344 11.6285 4.6306 -0.423452 2.14731 -2.40377 0.120353 -2.96142 -1.74029 -0.158673 1.08347 -4.70134 0.647471 -0 0 0 -0 0 0 -9.65266e-014 1.10524e-013 8.71671e-014 75.6458 -11.5642 1.30389 -8.34239 -3.19329 14.7277 -0.000951036 0.880546 0.123762 -8.86326e-010 1.83657e-009 -1.00969e-009 -1.53707e-009 3.18031e-009 -1.74269e-009 -8.86317e-010 1.83657e-009 -1.0097e-009 7.73091 5.47488 0.417314 -8.86327e-010 1.83657e-009 -1.00968e-009 2.90554 0.965183 0.102902 -8.86326e-010 1.83657e-009 -1.00968e-009 10.2786 0.731801 0.0259123 -8.86327e-010 1.83657e-009 -1.00967e-009 2.22167 -0.733487 -0.20892 -9.66984e-014 1.10524e-013 8.69186e-014 -81.4884 27.3787 1.83224 19.4024 -12.2783 -37.2483 0.00228729 1.36548 -0.191942 -3.93501e-010 -1.77233e-010 1.97083e-010 -6.80898e-010 -3.07938e-010 3.44268e-010 -3.93509e-010 -1.77233e-010 1.97093e-010 -7.73091 5.47488 -0.417314 -3.93503e-010 -1.77238e-010 1.97089e-010 -2.90554 0.965183 -0.102902 -3.93505e-010 -1.77239e-010 1.97086e-010 -10.2786 0.731801 -0.0259123 -3.93493e-010 -1.77238e-010 1.9708e-010 -2.22167 -0.733487 0.20892 -2.03217e-016 0 -3.88251e-019 13.5752 -10.345 1.29068 0.0215818 24.2549 0.560216 -3.07176 -14.6006 -8.4 2.03217e-016 0 3.88251e-019 9.93927 -32.7826 0.537875 0.573571 49.2385 -1.03007 0.799827 -12.5419 1.05631 
